# xmcd
#
# Track frame offsets:
# 150
# 14197
# 43704
# 66222
# 98680
# 111571
# 150731
# 180027
# 211782
# 237320
# 262518
# 286275
#
# Disc length: 4072 seconds
#
#
# Revision: 0
# Processed by: cddbd v1.5.2PL0 Copyright (c) Steve Scherf et al.
# Submitted via: FreeRIP 2.96 
#
DISCID=9c0fe60c
DTITLE=Iny Lorentz - Die Rose von Asturien CD5v6
DYEAR=2009
DGENRE=Speech
TTITLE0=45 Die Rose von Asturien
TTITLE1=46 Die Rose von Asturien
TTITLE2=47 Die Rose von Asturien
TTITLE3=48 Die Rose von Asturien
TTITLE4=49 Die Rose von Asturien
TTITLE5=50 Die Rose von Asturien
TTITLE6=51 Die Rose von Asturien
TTITLE7=52 Die Rose von Asturien
TTITLE8=53 Die Rose von Asturien
TTITLE9=54 Die Rose von Asturien
TTITLE10=55 Die Rose von Asturien
TTITLE11=56 Die Rose von Asturien
EXTD=gelesen von Dana Geissler
EXTT0=
EXTT1=
EXTT2=
EXTT3=
EXTT4=
EXTT5=
EXTT6=
EXTT7=
EXTT8=
EXTT9=
EXTT10=
EXTT11=
PLAYORDER=
